<svg xmlns="http://www.w3.org/2000/svg" id="Calque_1" data-name="Calque 1" version="1.1" viewBox="0 0 538.6 446.2"><defs><style>.cls-1,.cls-2{fill:#ae7616;stroke-width:0}.cls-2{fill:#fff}</style></defs><path d="M223.1 441.2c-58.3 0-113.1-22.7-154.3-63.9S4.9 281.4 4.9 223.1V4.9h310.6c58.3 0 113.1 22.7 154.3 63.9s63.9 96 63.9 154.3-22.7 113.1-63.9 154.3-96 63.9-154.3 63.9h-92.4Z" style="stroke-width:0;fill:#e5bb24"/><path d="M315.5 9.9c28.8 0 56.7 5.6 83 16.7 25.4 10.7 48.2 26.1 67.8 45.7s35 42.4 45.7 67.8c11.1 26.3 16.8 54.2 16.8 83s-5.6 56.7-16.8 83c-10.7 25.4-26.1 48.2-45.7 67.8s-42.4 35-67.8 45.7c-26.3 11.1-54.2 16.8-83 16.8h-92.4c-28.8 0-56.7-5.6-83-16.8-25.4-10.7-48.2-26.1-67.8-45.7s-35-42.4-45.7-67.8c-11.1-26.3-16.8-54.2-16.8-83V9.9h305.6m.1-9.9H0v223.1c0 123.2 99.9 223.1 223.1 223.1h92.4c123.2 0 223.1-99.9 223.1-223.1S438.7 0 315.5 0" class="cls-2"/><path d="M56.4 267.2H165l-6.1 33.5H50.3zm12.2-58.3h78.2l-6.1 33.4H62.5zm12.1-58.4h108.6l-6.1 33.5H74.6zm124.1 119.2 57.9-44.2c14.4-11.3 20.1-18.6 20.1-27.9s-6.8-15.9-17.5-15.9-18.6 6.2-30.7 20.1l-29-24.1c16.6-21.4 33.2-33.2 63-33.2s57 20.1 57 49.3v.4c0 24.8-12.8 37.6-35.8 54.2L263.3 267h63.9v34.9H204.7v-32.3Z" class="cls-1"/><path d="M67.2 256.5h108.6l-6.1 33.4H61.1zm12.1-58.4h78.3l-6.1 33.5H73.3zm12.2-58.3H200l-6 33.4H85.4zM215.6 259l57.9-44.2c14.4-11.3 20.1-18.6 20.1-27.9s-6.8-15.9-17.5-15.9-18.6 6.2-30.7 20.1l-29-24.1c16.6-21.4 33.2-33.2 63-33.2s57 20.1 57 49.3v.4c0 24.8-12.8 37.6-35.8 54.2l-26.5 18.6H338v34.9H215.5v-32.3Z" class="cls-2"/><path d="m336.2 287.1 25.2-29.5c12.7 10.9 24.9 17.2 38.5 17.2s23.1-7.3 23.1-18.6v-.5c0-11.6-9.5-18.4-23.4-18.4s-17.9 3.4-25.4 7.9l-26.1-14.7 4.5-80.3h106.1v36.3h-71.4l-1.4 24c7.2-3.4 14.7-5.7 25.4-5.7 28.6 0 54.4 15.9 54.4 50.4v.4c0 35.1-27 56.5-65.5 56.5s-47.6-9.7-64.2-25.2Z" class="cls-1"/><path d="m345.2 275 25.2-29.5c12.7 10.9 24.9 17.2 38.5 17.2s23.1-7.3 23.1-18.6v-.5c0-11.6-9.5-18.4-23.4-18.4s-17.9 3.4-25.4 7.9l-26.1-14.7 4.5-80.3h106.1v36.3h-71.4l-1.4 24c7.3-3.4 14.7-5.7 25.4-5.7 28.6 0 54.4 15.9 54.4 50.4v.4c0 35.1-27 56.5-65.5 56.5s-47.6-9.8-64.2-25.2Z" class="cls-2"/></svg>